<svg width="247" height="151" viewBox="0 0 247 151" fill="none" xmlns="http://www.w3.org/2000/svg">
<g clip-path="url(#clip0_513_59072)">
<path d="M27.7038 -0.28569C25.4959 -0.275431 23.3874 -0.0871284 21.5322 0.24116C16.0668 1.20671 15.0745 3.22769 15.0745 6.95473V11.877H27.9898V13.5178H15.0745H10.2275C6.47396 13.5178 3.18725 15.7739 2.15921 20.0658C0.973373 24.9853 0.920775 28.0551 2.15921 33.1918C3.07727 37.0154 5.26974 39.7398 9.02329 39.7398H13.4639V33.8391C13.4639 29.5762 17.1522 25.8159 21.5322 25.8159H34.4324C38.0234 25.8159 40.8901 22.8592 40.8901 19.2529V6.95473C40.8901 3.4546 37.9373 0.825317 34.4324 0.24116C32.2138 -0.128165 29.9117 -0.295949 27.7038 -0.28569ZM20.7193 3.67321C22.0534 3.67321 23.1428 4.78045 23.1428 6.14187C23.1428 7.49848 22.0534 8.59549 20.7193 8.59549C19.3805 8.59549 18.2958 7.49848 18.2958 6.14187C18.2958 4.78045 19.3805 3.67321 20.7193 3.67321Z" fill="#F9F9F9"/>
<path d="M42.5043 13.5176V19.2527C42.5043 23.6991 38.7347 27.4415 34.436 27.4415H21.5358C18.0022 27.4415 15.0781 30.4657 15.0781 34.0045V46.3027C15.0781 49.8028 18.1217 51.8615 21.5358 52.8657C25.624 54.0678 29.5445 54.2851 34.436 52.8657C37.6875 51.9243 40.8937 50.0297 40.8937 46.3027V41.3804H27.9934V39.7396H40.8937H47.3513C51.1049 39.7396 52.5036 37.1214 53.809 33.1916C55.1574 29.146 55.1 25.2554 53.809 20.0656C52.8814 16.3289 51.1097 13.5176 47.3513 13.5176H42.5043ZM35.2489 44.6619C36.5877 44.6619 37.6724 45.7589 37.6724 47.1155C37.6724 48.477 36.5877 49.5842 35.2489 49.5842C33.9148 49.5842 32.8254 48.477 32.8254 47.1155C32.8254 45.7589 33.9148 44.6619 35.2489 44.6619Z" fill="#F9F9F9"/>
</g>
<rect x="96.2422" y="0.164062" width="54.137" height="54.137" rx="10.1507" fill="#F9F9F9"/>
<path fill-rule="evenodd" clip-rule="evenodd" d="M105.734 25.3894C105.664 25.3894 105.646 25.3543 105.682 25.3016L106.051 24.8271C106.086 24.7744 106.174 24.7393 106.244 24.7393H112.517C112.587 24.7393 112.605 24.792 112.57 24.8447L112.271 25.3016C112.236 25.3543 112.148 25.407 112.095 25.407L105.734 25.3894Z" fill="#16171A"/>
<path fill-rule="evenodd" clip-rule="evenodd" d="M103.082 27.0095C103.012 27.0095 102.994 26.9744 103.029 26.9217L103.398 26.4472C103.433 26.3945 103.521 26.3594 103.592 26.3594H111.604C111.674 26.3594 111.71 26.4121 111.692 26.4648L111.551 26.8865C111.534 26.9568 111.464 26.992 111.393 26.992L103.082 27.0095Z" fill="#16171A"/>
<path fill-rule="evenodd" clip-rule="evenodd" d="M107.32 28.6218C107.25 28.6218 107.232 28.5691 107.268 28.5164L107.514 28.0771C107.549 28.0244 107.619 27.9717 107.689 27.9717H111.204C111.274 27.9717 111.309 28.0244 111.309 28.0947L111.274 28.5164C111.274 28.5867 111.204 28.6394 111.151 28.6394L107.32 28.6218Z" fill="#16171A"/>
<path fill-rule="evenodd" clip-rule="evenodd" d="M125.576 25.0721C124.469 25.3533 123.714 25.5641 122.624 25.8453C122.361 25.9156 122.343 25.9331 122.115 25.6696C121.851 25.3708 121.658 25.1776 121.289 25.0018C120.182 24.4571 119.11 24.6152 118.109 25.2654C116.914 26.0386 116.299 27.1808 116.316 28.6041C116.334 30.0099 117.3 31.1696 118.688 31.3629C119.883 31.5211 120.885 31.0993 121.676 30.2032C121.834 30.0099 121.974 29.799 122.15 29.553C121.517 29.553 120.727 29.553 118.759 29.553C118.39 29.553 118.302 29.3246 118.425 29.0258C118.653 28.4811 119.075 27.5674 119.321 27.1105C119.374 27.005 119.497 26.8293 119.76 26.8293H126.156C126.121 27.3038 126.121 27.7782 126.051 28.2527C125.858 29.5179 125.383 30.6776 124.61 31.6968C123.345 33.3661 121.693 34.4029 119.602 34.684C117.88 34.9125 116.281 34.5786 114.875 33.5243C113.575 32.5402 112.837 31.2399 112.644 29.6233C112.415 27.7079 112.978 25.9859 114.137 24.4747C115.385 22.8405 117.037 21.8037 119.057 21.4347C120.709 21.136 122.291 21.3293 123.714 22.2957C124.645 22.9108 125.313 23.7542 125.752 24.7734C125.858 24.9315 125.787 25.0194 125.576 25.0721Z" fill="#16171A"/>
<path d="M131.383 34.7898C129.784 34.7547 128.326 34.2978 127.096 33.2435C126.059 32.3473 125.409 31.2051 125.198 29.8521C124.882 27.8664 125.426 26.1092 126.621 24.5453C127.904 22.8584 129.45 21.9798 131.541 21.6108C133.333 21.2945 135.02 21.4702 136.549 22.507C137.937 23.4559 138.798 24.7386 139.027 26.4255C139.325 28.7978 138.64 30.7307 137.006 32.3825C135.846 33.5598 134.423 34.2978 132.789 34.6317C132.314 34.7196 131.84 34.7371 131.383 34.7898ZM135.565 27.6907C135.547 27.4623 135.547 27.2866 135.512 27.1109C135.196 25.3712 133.597 24.3872 131.928 24.7738C130.294 25.1428 129.239 26.1795 128.853 27.8313C128.536 29.2019 129.204 30.5901 130.469 31.1524C131.436 31.5742 132.402 31.5214 133.333 31.047C134.722 30.3265 135.477 29.2019 135.565 27.6907Z" fill="#16171A"/>
<g clip-path="url(#clip1_513_59072)">
<path d="M219.204 3.39258C206.28 3.39258 195.762 13.9161 195.762 26.8348C195.762 39.7536 206.285 50.2771 219.204 50.2771C232.123 50.2771 242.646 39.7536 242.646 26.8348C242.646 13.9161 232.123 3.39258 219.204 3.39258ZM219.169 5.47545C219.57 5.48583 219.951 5.6529 220.231 5.94102C220.511 6.22914 220.667 6.61553 220.667 7.01777C220.667 7.42682 220.504 7.81911 220.215 8.10836C219.926 8.3976 219.534 8.56009 219.125 8.56009C218.716 8.56009 218.323 8.3976 218.034 8.10836C217.745 7.81911 217.582 7.42682 217.582 7.01777C217.582 6.81142 217.624 6.60715 217.704 6.41706C217.784 6.22696 217.902 6.05492 218.05 5.9111C218.198 5.76728 218.373 5.65462 218.565 5.57979C218.758 5.50496 218.963 5.46948 219.169 5.47545ZM222.7 8.01458C225.408 8.52171 227.972 9.61216 230.216 11.2102C232.46 12.8082 234.329 14.8755 235.693 17.2685L233.873 21.3747C233.561 22.0839 233.883 22.917 234.587 23.2344L238.089 24.7867C238.197 25.8811 238.211 26.9829 238.128 28.0796H236.179C235.986 28.0796 235.907 28.2085 235.907 28.397V29.2896C235.907 31.3924 234.721 31.8536 233.68 31.9676C232.688 32.0817 231.592 31.5511 231.453 30.946C230.868 27.6581 229.896 26.9588 228.359 25.7438C230.268 24.5338 232.252 22.7435 232.252 20.3531C232.252 17.7694 230.481 16.1427 229.276 15.3443C227.58 14.2285 225.706 14.0053 225.2 14.0053H205.065C207.849 10.8951 211.581 8.7895 215.683 8.01458L218.058 10.5041C218.594 11.0645 219.482 11.0893 220.042 10.5487L222.7 8.01458ZM200.78 19.4307C201.182 19.4423 201.563 19.6099 201.842 19.8979C202.122 20.1859 202.278 20.5716 202.278 20.973C202.278 21.3821 202.116 21.7744 201.826 22.0636C201.537 22.3529 201.145 22.5153 200.736 22.5153C200.327 22.5153 199.934 22.3529 199.645 22.0636C199.356 21.7744 199.194 21.3821 199.194 20.973C199.193 20.7667 199.235 20.5624 199.315 20.3723C199.395 20.1822 199.513 20.0102 199.661 19.8664C199.809 19.7225 199.984 19.6099 200.177 19.535C200.369 19.4602 200.574 19.4247 200.78 19.4307ZM237.553 19.5001C237.954 19.5118 238.335 19.6794 238.615 19.9674C238.895 20.2553 239.051 20.641 239.051 21.0425C239.051 21.4515 238.888 21.8438 238.599 22.133C238.31 22.4223 237.918 22.5848 237.508 22.5848C237.099 22.5848 236.707 22.4223 236.418 22.133C236.129 21.8438 235.966 21.4515 235.966 21.0425C235.966 20.8361 236.007 20.6318 236.088 20.4417C236.168 20.2516 236.286 20.0796 236.434 19.9358C236.582 19.792 236.757 19.6793 236.949 19.6045C237.141 19.5296 237.347 19.4942 237.553 19.5001ZM203.687 19.7481H206.374V31.8684H200.949C200.279 29.5155 200.07 27.0552 200.334 24.623L203.657 23.1452C204.366 22.8278 204.688 21.9996 204.371 21.2904L203.687 19.7481ZM214.904 19.877H221.307C221.639 19.877 223.642 20.2589 223.642 21.7615C223.642 23.0063 222.105 23.4526 220.841 23.4526H214.899L214.904 19.877ZM214.904 28.5854H219.809C220.255 28.5854 222.204 28.7144 222.824 31.2039C223.018 31.9676 223.449 34.4572 223.742 35.2556C224.034 36.1483 225.22 37.9336 226.484 37.9336H234.488C233.952 38.652 233.365 39.3314 232.733 39.9669L229.475 39.2676C228.716 39.104 227.967 39.59 227.803 40.3487L227.03 43.959C224.542 45.086 221.84 45.6627 219.109 45.6499C216.378 45.6371 213.682 45.0349 211.205 43.8846L210.431 40.2743C210.267 39.5156 209.524 39.0296 208.765 39.1932L205.576 39.8776C204.984 39.2672 204.434 38.6177 203.93 37.9336H219.437C219.611 37.9336 219.73 37.9038 219.73 37.7402V32.2553C219.73 32.0966 219.611 32.0619 219.437 32.0619H214.899L214.904 28.5854ZM207.748 41.1472C208.149 41.1588 208.53 41.3264 208.81 41.6144C209.09 41.9024 209.246 42.288 209.246 42.6895C209.246 43.0985 209.083 43.4908 208.794 43.7801C208.505 44.0693 208.113 44.2318 207.704 44.2318C207.294 44.2318 206.902 44.0693 206.613 43.7801C206.324 43.4908 206.161 43.0985 206.161 42.6895C206.161 42.4831 206.202 42.2789 206.283 42.0888C206.363 41.8987 206.481 41.7266 206.629 41.5828C206.777 41.439 206.952 41.3263 207.144 41.2515C207.337 41.1767 207.542 41.1412 207.748 41.1472ZM230.585 41.2166C230.987 41.2282 231.368 41.3958 231.647 41.6838C231.927 41.9718 232.083 42.3575 232.083 42.7589C232.083 43.1679 231.921 43.5602 231.631 43.8495C231.342 44.1387 230.95 44.3012 230.541 44.3012C230.132 44.3012 229.739 44.1387 229.45 43.8495C229.161 43.5602 228.998 43.1679 228.998 42.7589C228.998 42.5525 229.04 42.3483 229.12 42.1582C229.2 41.9681 229.318 41.796 229.466 41.6522C229.614 41.5084 229.789 41.3957 229.981 41.3209C230.174 41.2461 230.379 41.2106 230.585 41.2166Z" fill="#F9F9F9"/>
<path fill-rule="evenodd" clip-rule="evenodd" d="M241.34 26.8341C241.34 32.7041 239.008 38.3337 234.858 42.4845C230.707 46.6352 225.077 48.9671 219.207 48.9671C213.337 48.9671 207.707 46.6352 203.557 42.4845C199.406 38.3337 197.074 32.7041 197.074 26.8341C197.074 20.964 199.406 15.3344 203.557 11.1837C207.707 7.03292 213.337 4.70106 219.207 4.70106C225.077 4.70106 230.707 7.03292 234.858 11.1837C239.008 15.3344 241.34 20.964 241.34 26.8341ZM240.924 24.6966L244.375 26.8341L240.924 28.9715L243.889 31.7437L240.09 33.167L242.461 36.4649L238.449 37.1195L240.135 40.8191L236.073 40.6753L237.006 44.6327L233.048 43.7004L233.192 47.762L229.493 46.0759L228.838 50.0879L225.54 47.7174L224.117 51.5161L221.345 48.5505L219.207 52.0021L217.07 48.5505L214.297 51.5161L212.874 47.7174L209.576 50.0879L208.922 46.0759L205.222 47.762L205.366 43.7004L201.408 44.6327L202.341 40.6753L198.279 40.8191L199.965 37.1195L195.953 36.4649L198.324 33.167L194.525 31.7437L197.491 28.9715L194.039 26.8341L197.491 24.6966L194.525 21.9244L198.324 20.5011L195.953 17.2033L199.965 16.5486L198.279 12.8491L202.341 12.9929L201.408 9.03542L205.366 9.96775L205.222 5.90615L208.922 7.59229L209.576 3.58028L212.874 5.95078L214.297 2.15202L217.07 5.11763L219.207 1.66602L221.345 5.11763L224.117 2.15202L225.54 5.95078L228.838 3.58028L229.493 7.59229L233.192 5.90615L233.048 9.96775L237.006 9.03542L236.073 12.9929L240.135 12.8491L238.449 16.5486L242.461 17.2033L240.09 20.5011L243.889 21.9244L240.924 24.6966Z" fill="#F9F9F9" stroke="#F9F9F9" stroke-width="1.48777" stroke-linecap="round" stroke-linejoin="round"/>
</g>
<g clip-path="url(#clip2_513_59072)">
<path d="M54.1448 150.541H0.0078125V96.4043H54.1448L27.0763 123.473L54.1448 150.541Z" fill="#F9F9F9"/>
</g>
<rect x="96.2422" y="96.4072" width="54.137" height="54.137" rx="10.1507" fill="#F9F9F9"/>
<path d="M127.883 130.475C126.987 130.728 124.968 131.142 122.08 131.142C119.246 131.142 116.931 130.657 116.924 130.086C116.919 129.706 117.378 129.541 117.378 129.541L117.297 129.493C115.94 129.733 114.679 130.104 114.687 130.659C114.699 131.666 118.551 132.422 122.075 132.422C125.07 132.422 127.947 131.92 129.245 131.261L127.883 130.475ZM118.307 133.589C117.678 133.714 116.306 134.029 116.306 134.696C116.306 135.62 119.241 136.327 122.073 136.327C125.971 136.327 127.568 135.324 127.64 135.272L126.019 134.335C125.33 134.499 124.169 134.757 122.077 134.757C119.743 134.757 118.222 134.357 118.222 133.919C118.222 133.827 118.281 133.716 118.389 133.636L118.307 133.589ZM134.236 127.372C134.127 129.464 132.194 130.767 130.262 131.868L130.437 131.969C132.499 131.389 136.177 129.7 135.873 127.104C135.721 125.81 134.538 124.885 132.995 124.885C132.515 124.885 132.088 124.97 131.741 125.075L131.74 125.078L131.667 125.263C133.047 124.993 134.307 126 134.236 127.372ZM122.02 139.649C127.442 139.602 133.509 138.541 133.494 136.757C133.491 136.434 133.28 136.212 133.098 136.078L133.009 136.129C132.507 137.511 128.27 138.532 122.011 138.587C117.972 138.622 112.377 137.654 112.367 136.536C112.358 135.415 115.018 134.799 115.018 134.799L114.83 134.692C113.047 134.937 109.763 135.791 109.773 137.023C109.789 138.805 117.338 139.69 122.02 139.649ZM121.456 140.923C119.301 140.942 116.669 140.763 114.455 140.391L114.25 140.509C116.455 141.156 119.526 141.546 122.899 141.517C129.525 141.459 134.896 139.816 135.003 137.839L134.926 137.794C134.482 138.336 131.616 140.834 121.456 140.923ZM113.156 126.895C113.156 125.896 116.947 125.335 118.712 125.199L118.88 125.297C118.202 125.42 115.482 125.9 115.482 126.526C115.482 127.207 119.655 127.654 122.076 127.654C126.19 127.654 128.986 127.031 129.738 126.826L130.79 127.438C130.07 127.791 126.977 128.716 122.077 128.716C116.631 128.716 113.156 127.65 113.156 126.895Z" fill="#16171A"/>
<path d="M129.611 112.927L129.52 112.875C127.863 113.429 122.765 115.442 122.765 119.193C122.765 121.316 124.838 122.491 124.838 124.481C124.838 125.19 124.437 125.856 124.11 126.254L124.274 126.349C125.137 125.788 126.664 124.574 126.664 123.007C126.664 121.68 124.827 120.085 124.827 118.379C124.827 115.691 128.371 113.582 129.611 112.927ZM127.108 108.009C127.108 113.562 119.499 115.687 119.499 119.635C119.499 122.406 121.336 124.145 122.353 125.243L122.271 125.291C120.987 124.488 117.609 122.47 117.609 119.136C117.609 114.456 126.35 112.22 126.35 106.904C126.35 106.25 126.253 105.749 126.185 105.478L126.274 105.427C126.551 105.776 127.108 106.646 127.108 108.009Z" fill="#16171A"/>
<g clip-path="url(#clip3_513_59072)">
<path d="M246.629 150.542H192.492V96.4053H246.629L219.561 123.474L246.629 150.542Z" fill="#16171A"/>
</g>
<g clip-path="url(#clip4_513_59072)">
<path d="M246.625 96.4053H192.488V150.542H246.625V96.4053Z" fill="#F9F9F9"/>
<path d="M228.862 138.698C229.952 140.479 231.371 141.788 233.88 141.788C235.988 141.788 237.335 140.734 237.335 139.278C237.335 137.534 235.951 136.916 233.631 135.901L232.359 135.356C228.688 133.792 226.25 131.832 226.25 127.691C226.25 123.875 229.157 120.971 233.7 120.971C236.934 120.971 239.26 122.096 240.935 125.044L236.974 127.587C236.102 126.023 235.161 125.407 233.7 125.407C232.21 125.407 231.265 126.353 231.265 127.587C231.265 129.114 232.211 129.731 234.393 130.677L235.665 131.221C239.988 133.075 242.428 134.965 242.428 139.213C242.428 143.793 238.83 146.303 233.998 146.303C229.274 146.303 226.221 144.051 224.728 141.1L228.862 138.698ZM210.891 139.139C211.69 140.557 212.417 141.756 214.165 141.756C215.836 141.756 216.891 141.102 216.891 138.559V121.261H221.978V138.628C221.978 143.896 218.89 146.293 214.382 146.293C210.308 146.293 207.95 144.185 206.75 141.646L210.891 139.139Z" fill="#16171A"/>
</g>
<defs>
<clipPath id="clip0_513_59072">
<rect width="54.137" height="54.137" fill="white" transform="translate(0 0.164062)"/>
</clipPath>
<clipPath id="clip1_513_59072">
<rect width="54.137" height="54.137" fill="white" transform="translate(192.488 0.164062)"/>
</clipPath>
<clipPath id="clip2_513_59072">
<rect width="54.137" height="54.137" fill="white" transform="translate(0 96.4062)"/>
</clipPath>
<clipPath id="clip3_513_59072">
<rect width="54.137" height="54.137" fill="white" transform="translate(192.488 96.4062)"/>
</clipPath>
<clipPath id="clip4_513_59072">
<rect width="54.137" height="54.137" fill="white" transform="translate(192.488 96.4062)"/>
</clipPath>
</defs>
</svg>
