<svg width="47" height="20" viewBox="0 0 47 20" fill="none" xmlns="http://www.w3.org/2000/svg">
<path d="M35.6166 12.9445C36.0386 12.9445 36.393 12.873 36.6799 12.73C36.9724 12.5815 37.2031 12.4138 37.3718 12.2268C37.5462 12.0398 37.6644 11.883 37.7263 11.7565C37.8444 11.5145 37.9119 11.234 37.9288 10.915C37.9435 10.7025 37.9534 10.5136 37.9585 10.3483C37.5859 10.4421 37.2581 10.5019 36.9949 10.55L36.9837 10.552C36.5618 10.6235 36.2214 10.6895 35.9626 10.75C35.7038 10.8105 35.476 10.8765 35.2791 10.948C35.0541 11.036 34.8713 11.1323 34.7306 11.2368C34.5956 11.3358 34.4943 11.4458 34.4268 11.5668C34.3649 11.6878 34.334 11.8225 34.334 11.971C34.334 12.1745 34.3846 12.3505 34.4859 12.499C34.5928 12.642 34.7419 12.752 34.9331 12.829C35.1244 12.906 35.3522 12.9445 35.6166 12.9445Z" fill="#16171A"/>
<path fill-rule="evenodd" clip-rule="evenodd" d="M0.589679 2.88812C0 4.0196 0 5.5008 0 8.4632V11.5368C0 14.4992 0 15.9804 0.589679 17.1119C1.10838 18.1072 1.93603 18.9164 2.95403 19.4235C4.11134 20 5.62635 20 8.65636 20H37.8315C40.8615 20 42.3765 20 43.5338 19.4235C44.5518 18.9164 45.3795 18.1072 45.8982 17.1119C46.4878 15.9804 46.4878 14.4992 46.4878 11.5368V8.4632C46.4878 5.5008 46.4878 4.0196 45.8982 2.88812C45.3795 1.89283 44.5518 1.08364 43.5338 0.576521C42.3765 0 40.8615 0 37.8315 0H8.65636C5.62635 0 4.11134 0 2.95403 0.576521C1.93603 1.08364 1.10838 1.89283 0.589679 2.88812ZM35.1272 14.7101C34.4746 14.7101 33.9205 14.5891 33.4648 14.3471C33.0148 14.0996 32.6716 13.7723 32.4353 13.3653C32.2047 12.9528 32.0894 12.499 32.0894 12.004C32.0894 11.5915 32.1233 11.3539 32.2527 11.0129C32.3821 10.6719 32.5856 10.365 32.8725 10.1065C33.1651 9.84248 33.5677 9.66101 33.8936 9.5644C34.2195 9.4678 34.8276 9.32853 35.2152 9.26493C35.3411 9.24428 35.4893 9.22121 35.659 9.19483L35.6591 9.19481L35.6592 9.19479C36.0118 9.13995 36.4565 9.07079 36.9837 8.97911C37.3906 8.90836 37.7037 8.79491 37.9859 8.63709C37.9504 8.23409 37.8245 7.92912 37.6081 7.72218C37.3493 7.47468 36.9162 7.35093 36.3086 7.35093C35.9711 7.35093 35.6195 7.43068 35.2538 7.59018C34.8881 7.74968 34.6322 8.03294 34.4859 8.43995L32.41 7.79643C32.6407 7.05942 33.0739 6.45991 33.7096 5.9979C34.3453 5.53589 35.2116 5.30488 36.3086 5.30488C37.1131 5.30488 37.8275 5.42589 38.452 5.66789C39.0764 5.90989 39.549 6.3279 39.8696 6.92192C40.0497 7.25192 40.1565 7.58193 40.1903 7.91194C40.2241 8.24194 40.2409 8.61045 40.2409 9.01746V14.4626H38.2326V13.3688C37.8699 13.7865 37.4846 14.1016 37.0765 14.3141C36.5646 14.5781 35.9148 14.7101 35.1272 14.7101ZM28.106 14.4623V9.19869C28.106 8.61018 27.9626 8.15367 27.6756 7.82917C27.3944 7.49916 27.0034 7.33416 26.5027 7.33416C26.182 7.33416 25.9036 7.40841 25.6673 7.55691C25.431 7.69991 25.2454 7.90342 25.1104 8.16742C24.981 8.42593 24.9163 8.72568 24.9163 9.06669V14.4623H22.621V9.19869C22.621 8.61018 22.4776 8.15367 22.1906 7.82917C21.9094 7.49916 21.5184 7.33416 21.0177 7.33416C20.5395 7.33416 20.1542 7.49641 19.8616 7.82092C19.5747 8.13992 19.4313 8.55518 19.4313 9.06669V14.4623H17.1191V5.55212H19.1444V6.52834C19.4087 6.20998 19.7322 5.94782 20.1148 5.74187C20.6211 5.47237 21.1865 5.33761 21.8109 5.33761C22.5254 5.33761 23.1104 5.48612 23.5661 5.78312C23.9467 6.02818 24.245 6.34064 24.4609 6.7205C24.7505 6.30194 25.1245 5.97298 25.5829 5.73362C26.0836 5.46962 26.6377 5.33761 27.2453 5.33761C28.286 5.33761 29.0708 5.64012 29.5996 6.24513C30.1341 6.84465 30.4013 7.63116 30.4013 8.60468V14.4623H28.106ZM8.05208 14.3716C8.50213 14.6081 9.08438 14.7263 9.79884 14.7263C10.6933 14.7263 11.4331 14.5366 12.0182 14.1571C12.2958 13.9787 12.5405 13.7742 12.7523 13.5435V14.4623H14.7775V5.55213H12.4654V10.0732C12.4654 10.6232 12.4007 11.0687 12.2713 11.4097C12.1475 11.7453 11.9872 12.001 11.7903 12.177C11.5934 12.3475 11.3825 12.463 11.1574 12.5235C10.9324 12.584 10.7214 12.6143 10.5245 12.6143C10.0351 12.6143 9.65539 12.507 9.38535 12.2925C9.12095 12.078 8.92968 11.8113 8.81154 11.4922C8.6934 11.1732 8.62308 10.857 8.60058 10.5435C8.57808 10.2245 8.56682 9.96322 8.56682 9.75971V5.55213H6.23781V10.5517C6.23781 10.7002 6.24906 10.9367 6.27156 11.2612C6.29406 11.5858 6.35876 11.946 6.46565 12.342C6.57253 12.7325 6.74974 13.1093 6.99727 13.4723C7.25042 13.8353 7.60203 14.1351 8.05208 14.3716Z" fill="#16171A"/>
</svg>
