<svg width="32" height="32" viewBox="0 0 32 32" fill="none" xmlns="http://www.w3.org/2000/svg">
<rect width="32" height="32" rx="16" fill="black"/>
<path d="M22.2282 21.75V10.5H23.138V21.75H22.2282ZM22.6942 20.4811C21.8213 20.4811 21.0705 20.298 20.4417 19.9318C19.8167 19.5619 19.3359 19.0492 18.9993 18.3937C18.6664 17.7382 18.5 16.9838 18.5 16.1305C18.5 15.2699 18.6683 14.5118 19.0049 13.8563C19.3451 13.2008 19.8278 12.6899 20.4528 12.3237C21.0779 11.9539 21.8213 11.7689 22.6831 11.7689C23.4265 11.7689 24.0774 11.9026 24.6359 12.1699C25.1944 12.4373 25.6364 12.8145 25.9619 13.3015C26.2873 13.7849 26.4667 14.3507 26.5 14.9989H24.2698C24.2069 14.5814 24.0405 14.2427 23.7705 13.9827C23.5042 13.7227 23.1546 13.5927 22.7219 13.5927C22.3558 13.5927 22.0358 13.6915 21.7621 13.8893C21.4921 14.0834 21.2813 14.3672 21.1297 14.7407C20.978 15.1143 20.9022 15.5665 20.9022 16.0975C20.9022 16.6359 20.9762 17.0936 21.1241 17.4708C21.2758 17.848 21.4884 18.1355 21.7621 18.3333C22.0358 18.531 22.3558 18.6299 22.7219 18.6299C22.9919 18.6299 23.2342 18.575 23.4487 18.4651C23.6669 18.3552 23.8463 18.1959 23.9868 17.9872C24.1311 17.7784 24.2254 17.5239 24.2698 17.2236H26.5C26.463 17.8682 26.2855 18.4358 25.9674 18.9265C25.653 19.4172 25.2184 19.7999 24.6637 20.0746C24.1089 20.3456 23.4524 20.4811 22.6942 20.4811Z" fill="white"/>
<path d="M5.5 20.5V12.1093H7.72827V13.5897H7.82706C8.00269 13.098 8.2954 12.7102 8.7052 12.4261C9.11499 12.142 9.60529 12 10.1761 12C10.7542 12 11.2463 12.1439 11.6524 12.4316C12.0586 12.7156 12.3293 13.1016 12.4647 13.5897H12.5525C12.7245 13.1089 13.0355 12.7247 13.4856 12.437C13.9393 12.1457 14.4753 12 15.0936 12C15.8803 12 16.5188 12.2495 17.0091 12.7484C17.503 13.2437 17.75 13.9466 17.75 14.857V20.5H15.4174V15.3159C15.4174 14.8497 15.293 14.5001 15.0442 14.267C14.7954 14.034 14.4844 13.9174 14.1112 13.9174C13.6868 13.9174 13.3557 14.0522 13.1178 14.3217C12.88 14.5875 12.7611 14.9389 12.7611 15.376V20.5H10.4944V15.2667C10.4944 14.8552 10.3755 14.5274 10.1377 14.2834C9.90349 14.0394 9.59431 13.9174 9.21013 13.9174C8.95034 13.9174 8.71617 13.983 8.50762 14.1141C8.30272 14.2415 8.1399 14.4218 8.01915 14.6549C7.89841 14.8843 7.83804 15.1538 7.83804 15.4634V20.5H5.5Z" fill="white"/>
</svg>
