<svg width="61" height="60" viewBox="0 0 61 60" fill="none" xmlns="http://www.w3.org/2000/svg">
<path d="M44.1094 42.5C44.1094 46.6423 40.7516 50 36.6094 50C32.4671 50 29.1094 46.6423 29.1094 42.5C29.1094 38.3577 32.4671 35 36.6094 35C40.7516 35 44.1094 38.3577 44.1094 42.5Z" stroke="#F9F9F9" stroke-width="3.75" stroke-linejoin="round"/>
<path d="M12.2577 17.8301L25.526 28.9635L9.25 34.8875L12.2577 17.8301Z" stroke="#F9F9F9" stroke-width="3.75" stroke-linejoin="round"/>
<path d="M36.5881 11.7901C36.9453 10.4564 38.3163 9.66498 39.6498 10.0223L49.3091 12.6105C50.6428 12.9679 51.4343 14.3387 51.0768 15.6724L48.4888 25.3315C48.1313 26.6653 46.7606 27.4568 45.4268 27.0995L35.7676 24.5112C34.4338 24.1539 33.6426 22.783 33.9998 21.4494L36.5881 11.7901Z" stroke="#F9F9F9" stroke-width="3.75" stroke-linejoin="round"/>
</svg>
