<svg width="64" height="65" viewBox="0 0 64 65" fill="none" xmlns="http://www.w3.org/2000/svg">
<path d="M54.2141 12.6286C50.0093 10.6934 45.5703 9.32046 41.0103 8.54492C40.3863 9.66623 39.822 10.8199 39.319 12.0012C34.462 11.2654 29.5226 11.2654 24.6656 12.0012C24.1625 10.8201 23.598 9.66638 22.9743 8.54492C18.4116 9.327 13.9696 10.7032 9.76053 12.6388C1.4044 25.0671 -0.860824 37.1866 0.271773 49.1342C5.16533 52.7689 10.6426 55.5331 16.4655 57.3068C17.7767 55.534 18.9369 53.6535 19.9339 51.6846C18.0403 50.9737 16.2127 50.0966 14.4722 49.0636C14.9302 48.7296 15.3782 48.3854 15.8111 48.0515C20.8757 50.4457 26.4032 51.687 32 51.687C37.5965 51.687 43.1241 50.4457 48.1885 48.0515C48.6266 48.4108 49.0746 48.7549 49.5276 49.0636C47.7839 50.0983 45.9529 50.9772 44.0559 51.6899C45.0516 53.6576 46.2118 55.5366 47.5241 57.3068C53.3522 55.5404 58.8335 52.7773 63.728 49.1395C65.0569 35.2841 61.4578 23.2757 54.2141 12.6286ZM21.3685 41.7868C18.2123 41.7868 15.6048 38.9073 15.6048 35.3649C15.6048 31.8228 18.1217 28.9181 21.3584 28.9181C24.5952 28.9181 27.1826 31.8228 27.1273 35.3649C27.0717 38.9073 24.5851 41.7868 21.3685 41.7868ZM42.6313 41.7868C39.47 41.7868 36.8727 38.9073 36.8727 35.3649C36.8727 31.8228 39.3894 28.9181 42.6313 28.9181C45.8732 28.9181 48.4404 31.8228 48.3849 35.3649C48.3296 38.9073 45.8479 41.7868 42.6313 41.7868Z" fill="#16171A"/>
</svg>
