<svg width="32" height="33" viewBox="0 0 32 33" fill="none" xmlns="http://www.w3.org/2000/svg">
<path d="M10.6641 13.4974V16.1641M10.6641 16.1641V18.8307M10.6641 16.1641H13.3307M10.6641 16.1641H7.9974M5.33073 8.16406H26.6641C28.1369 8.16406 29.3307 9.35797 29.3307 10.8307V21.4974C29.3307 22.9702 28.1369 24.1641 26.6641 24.1641H5.33073C3.85797 24.1641 2.66406 22.9702 2.66406 21.4974V10.8307C2.66406 9.35797 3.85797 8.16406 5.33073 8.16406Z" stroke="#16171A" stroke-width="2.66667" stroke-linecap="round" stroke-linejoin="round"/>
<path d="M18.5 18.1647C18.5 18.809 19.0224 19.3314 19.6667 19.3314C20.3109 19.3314 20.8333 18.809 20.8333 18.1647C20.8333 17.5204 20.3109 16.998 19.6667 16.998C19.0224 16.998 18.5 17.5204 18.5 18.1647ZM22.5 14.1647C22.5 14.809 23.0224 15.3314 23.6667 15.3314C24.3109 15.3314 24.8333 14.809 24.8333 14.1647C24.8333 13.5204 24.3109 12.998 23.6667 12.998C23.0224 12.998 22.5 13.5204 22.5 14.1647Z" fill="#16171A" stroke="#16171A" stroke-linecap="square"/>
</svg>
