<svg width="58" height="57" viewBox="0 0 58 57" fill="none" xmlns="http://www.w3.org/2000/svg">
<path d="M28.7084 0.544922C12.8553 0.544922 0 13.398 0 29.2538C0 41.9381 8.22584 52.6995 19.6326 56.4956C21.0673 56.7613 21.5941 55.8728 21.5941 55.1145C21.5941 54.4299 21.5675 52.1684 21.5551 49.7695C13.5684 51.5062 11.8831 46.3822 11.8831 46.3822C10.5772 43.0639 8.69554 42.1815 8.69554 42.1815C6.09082 40.3997 8.89188 40.4363 8.89188 40.4363C11.7747 40.6389 13.2927 43.3948 13.2927 43.3948C15.8532 47.7837 20.0086 46.5149 21.6469 45.7813C21.9045 43.9258 22.6485 42.6593 23.4695 41.9424C17.093 41.2165 10.3899 38.7548 10.3899 27.7544C10.3899 24.62 11.5113 22.059 13.3478 20.0485C13.0497 19.3254 12.0671 16.4055 13.6259 12.451C13.6259 12.451 16.0367 11.6794 21.5228 15.3938C23.8128 14.7577 26.2687 14.4387 28.7084 14.4278C31.1482 14.4387 33.606 14.7577 35.9003 15.3938C41.3797 11.6794 43.7872 12.451 43.7872 12.451C45.3498 16.4055 44.3667 19.3254 44.0686 20.0485C45.9094 22.059 47.0232 24.62 47.0232 27.7544C47.0232 38.781 40.3072 41.2089 33.9145 41.9196C34.9443 42.8105 35.8618 44.5576 35.8618 47.2361C35.8618 51.0774 35.8285 54.1689 35.8285 55.1145C35.8285 55.8785 36.3453 56.7737 37.8005 56.4918C49.201 52.6914 57.4164 41.9339 57.4164 29.2538C57.4164 13.398 44.563 0.544922 28.7084 0.544922ZM10.7522 41.4413C10.689 41.584 10.4646 41.6267 10.2602 41.5288C10.052 41.4352 9.93503 41.2407 10.0025 41.0976C10.0643 40.9507 10.2892 40.9098 10.497 41.0082C10.7057 41.1019 10.8245 41.2982 10.7522 41.4413ZM12.1644 42.7014C12.0275 42.8283 11.7598 42.7694 11.5782 42.5687C11.3904 42.3686 11.3553 42.1009 11.4941 41.9721C11.6353 41.8452 11.8948 41.9046 12.0831 42.1047C12.2709 42.3073 12.3075 42.573 12.1644 42.7014ZM13.1332 44.3136C12.9573 44.4358 12.6696 44.3212 12.4918 44.0659C12.3159 43.8106 12.3159 43.5044 12.4956 43.3818C12.6739 43.2591 12.9573 43.3694 13.1374 43.6228C13.3129 43.8824 13.3129 44.1885 13.1332 44.3136ZM14.7716 46.1807C14.6142 46.3542 14.2791 46.3077 14.0338 46.0709C13.7827 45.8394 13.7129 45.5109 13.8707 45.3373C14.0299 45.1633 14.367 45.2123 14.6142 45.4472C14.8633 45.6782 14.9394 46.0091 14.7716 46.1807ZM16.8891 46.811C16.8197 47.0359 16.4969 47.1381 16.1717 47.0426C15.847 46.9442 15.6345 46.6808 15.7001 46.4535C15.7676 46.2272 16.0918 46.1208 16.4194 46.223C16.7436 46.3209 16.9566 46.5824 16.8891 46.811ZM19.2989 47.0784C19.3069 47.3152 19.0312 47.5115 18.6899 47.5158C18.3466 47.5234 18.069 47.3318 18.0652 47.0989C18.0652 46.8597 18.3347 46.6653 18.678 46.6596C19.0193 46.6529 19.2989 46.8431 19.2989 47.0784ZM21.6662 46.9877C21.7071 47.2187 21.4699 47.4559 21.1309 47.5192C20.7976 47.58 20.4891 47.4374 20.4468 47.2083C20.4054 46.9715 20.6469 46.7343 20.9797 46.6729C21.3192 46.614 21.6229 46.7528 21.6662 46.9877Z" fill="#16171A"/>
</svg>
