<svg width="24" height="25" viewBox="0 0 24 25" fill="none" xmlns="http://www.w3.org/2000/svg">
<g clip-path="url(#clip0_513_56485)">
<path fill-rule="evenodd" clip-rule="evenodd" d="M11.9642 0.164062C5.34833 0.164062 0 5.66406 0 12.4683C0 17.9073 3.42686 22.5113 8.18082 24.1408C8.77518 24.2633 8.9929 23.8761 8.9929 23.5503C8.9929 23.2651 8.97331 22.2873 8.97331 21.2686C5.64514 22.0021 4.95208 19.8018 4.95208 19.8018C4.41722 18.3758 3.62473 18.0093 3.62473 18.0093C2.53543 17.2556 3.70408 17.2556 3.70408 17.2556C4.91241 17.3371 5.54645 18.5186 5.54645 18.5186C6.61592 20.3926 8.33926 19.8631 9.03257 19.5371C9.13151 18.7426 9.44865 18.1926 9.78539 17.8871C7.13094 17.6018 4.33812 16.5426 4.33812 11.8163C4.33812 10.4718 4.81322 9.37181 5.56604 8.51631C5.44727 8.21081 5.03118 6.94756 5.68506 5.25681C5.68506 5.25681 6.69527 4.93081 8.97306 6.51981C9.94827 6.25048 10.954 6.11346 11.9642 6.11231C12.9744 6.11231 14.0042 6.25506 14.9552 6.51981C17.2332 4.93081 18.2434 5.25681 18.2434 5.25681C18.8973 6.94756 18.481 8.21081 18.3622 8.51631C19.1349 9.37181 19.5904 10.4718 19.5904 11.8163C19.5904 16.5426 16.7976 17.5813 14.1233 17.8871C14.5592 18.2741 14.9353 19.0073 14.9353 20.1686C14.9353 21.8186 14.9158 23.1428 14.9158 23.5501C14.9158 23.8761 15.1337 24.2633 15.7278 24.1411C20.4818 22.5111 23.9087 17.9073 23.9087 12.4683C23.9282 5.66406 18.5603 0.164062 11.9642 0.164062Z" fill="#7366C5"/>
</g>
<defs>
<clipPath id="clip0_513_56485">
<rect width="24" height="24" fill="white" transform="translate(0 0.164062)"/>
</clipPath>
</defs>
</svg>
