<svg width="54" height="54" viewBox="0 0 54 54" fill="none" xmlns="http://www.w3.org/2000/svg">
<path d="M10.2001 6.84033C9.58152 6.84033 9.08008 7.34178 9.08008 7.96033V46.0403C9.08008 46.6588 9.58152 47.1603 10.2001 47.1603H21.4001C22.0186 47.1603 22.5201 46.6588 22.5201 46.0403V7.96033C22.5201 7.34178 22.0186 6.84033 21.4001 6.84033H10.2001Z" fill="white"/>
<path d="M32.6005 6.84033C31.982 6.84033 31.4805 7.34178 31.4805 7.96033V46.0403C31.4805 46.6588 31.982 47.1603 32.6005 47.1603H43.8005C44.4189 47.1603 44.9205 46.6588 44.9205 46.0403V7.96033C44.9205 7.34178 44.4189 6.84033 43.8005 6.84033H32.6005Z" fill="white"/>
</svg>
