<svg width="16" height="17" viewBox="0 0 16 17" fill="none" xmlns="http://www.w3.org/2000/svg">
<path d="M4.23019 11.8334C5.1574 12.8555 6.51774 13.5001 8.00032 13.5001C10.7617 13.5001 13.0003 11.2615 13.0003 8.50005C13.0003 8.28799 12.9871 8.07919 12.9616 7.87445C12.9275 7.60039 13.1219 7.35059 13.3959 7.31639C13.6699 7.28225 13.9198 7.47666 13.9539 7.75066C13.9846 7.99639 14.0003 8.24652 14.0003 8.50005C14.0003 11.8138 11.3141 14.5001 8.00032 14.5001C6.31973 14.5001 4.77059 13.8085 3.66699 12.6926V14.0001C3.66699 14.2762 3.44313 14.5001 3.16699 14.5001C2.89085 14.5001 2.66699 14.2762 2.66699 14.0001V11.3334C2.66699 11.0573 2.89085 10.8334 3.16699 10.8334H5.83366C6.1098 10.8334 6.33366 11.0573 6.33366 11.3334C6.33366 11.6095 6.1098 11.8334 5.83366 11.8334H4.23019Z" fill="white"/>
<path d="M3.03871 9.1256C3.07288 9.39967 2.87844 9.64947 2.60442 9.68367C2.3304 9.7178 2.08057 9.5234 2.04639 9.2494C2.01576 9.00367 2 8.75353 2 8.5C2 5.18629 4.68629 2.5 8 2.5C9.6846 2.5 11.2371 3.19492 12.3412 4.31548V3C12.3412 2.72386 12.5651 2.5 12.8412 2.5C13.1174 2.5 13.3412 2.72386 13.3412 3V5.66667C13.3412 5.94281 13.1174 6.16667 12.8412 6.16667H10.1745C9.8984 6.16667 9.67453 5.94281 9.67453 5.66667C9.67453 5.39053 9.8984 5.16667 10.1745 5.16667H11.7701C10.8429 4.14454 9.4826 3.5 8 3.5C5.23857 3.5 3 5.73857 3 8.5C3 8.71207 3.01318 8.92087 3.03871 9.1256Z" fill="white"/>
</svg>
