<svg width="21" height="20" viewBox="0 0 21 20" fill="none" xmlns="http://www.w3.org/2000/svg">
<path d="M16.543 10.833C12.3309 11.1976 10.0326 13.4959 9.66797 17.708C9.28797 13.4304 7.00164 11.3098 2.79297 10.833C7.06817 10.3399 9.17489 8.23321 9.66797 3.95801C10.1447 8.16668 12.2654 10.453 16.543 10.833Z" stroke="#686A72" stroke-width="1.5" stroke-linecap="round" stroke-linejoin="round"/>
<path d="M16.9902 1.04871C16.9763 0.925933 16.8725 0.833133 16.7489 0.833008C16.6254 0.832882 16.5214 0.925475 16.5073 1.04822C16.4152 1.84636 16.1765 2.40759 15.7916 2.79256C15.4066 3.17753 14.8454 3.41617 14.0472 3.50822C13.9245 3.52237 13.8319 3.62637 13.832 3.74992C13.8322 3.87348 13.9249 3.97728 14.0477 3.99118C14.8327 4.0801 15.4059 4.31863 15.7999 4.70562C16.1926 5.09115 16.4362 5.65226 16.5066 6.44479C16.5178 6.57031 16.6229 6.66648 16.7489 6.66634C16.8749 6.6662 16.9799 6.56978 16.9909 6.44425C17.0584 5.66475 17.3017 5.09183 17.6963 4.69726C18.0909 4.30268 18.6638 4.0593 19.4433 3.99182C19.5688 3.98096 19.6652 3.87596 19.6654 3.74995C19.6655 3.62394 19.5694 3.51872 19.4438 3.50757C18.6513 3.43717 18.0902 3.19356 17.7046 2.80093C17.3176 2.40682 17.0791 1.83366 16.9902 1.04871Z" fill="#686A72"/>
</svg>
