<svg viewBox="0 0 47 20" fill="none" xmlns="http://www.w3.org/2000/svg" class="Header_header__svg__VpK8N"><path d="M35.617 12.944c.422 0 .776-.071 1.063-.214.292-.149.523-.316.692-.503.174-.187.292-.344.354-.47.118-.242.186-.523.203-.842.014-.212.024-.401.03-.567-.373.094-.7.154-.964.202l-.011.002a17.57 17.57 0 00-1.021.198c-.26.06-.487.127-.684.198a2.372 2.372 0 00-.548.289 1.048 1.048 0 00-.304.33.874.874 0 00-.093.404c0 .204.05.38.152.528.107.143.256.253.447.33.191.077.42.115.684.115z" fill="#16171A"></path><path fill-rule="evenodd" clip-rule="evenodd" d="M.59 2.888C0 4.02 0 5.501 0 8.463v3.074c0 2.962 0 4.443.59 5.575a5.351 5.351 0 002.364 2.312C4.111 20 5.626 20 8.656 20h29.175c3.03 0 4.545 0 5.703-.576a5.351 5.351 0 002.364-2.312c.59-1.132.59-2.613.59-5.575V8.463c0-2.962 0-4.443-.59-5.575A5.352 5.352 0 0043.534.577C42.377 0 40.862 0 37.83 0H8.656c-3.03 0-4.545 0-5.702.577A5.351 5.351 0 00.59 2.888zM35.127 14.71c-.652 0-1.207-.12-1.662-.363a2.614 2.614 0 01-1.03-.982 2.742 2.742 0 01-.346-1.361c0-.412.034-.65.164-.991.13-.341.333-.648.62-.906.292-.265.695-.446 1.02-.543a13.356 13.356 0 011.766-.37c.353-.054.797-.123 1.325-.215.407-.07.72-.184 1.002-.342-.036-.403-.161-.708-.378-.915-.259-.247-.692-.371-1.3-.371-.337 0-.688.08-1.054.24-.366.159-.622.442-.768.849l-2.076-.644a3.446 3.446 0 011.3-1.798c.635-.462 1.502-.693 2.599-.693.804 0 1.519.12 2.143.363.624.242 1.097.66 1.418 1.254.18.33.287.66.32.99.034.33.05.698.05 1.105v5.446h-2.007v-1.094c-.363.418-.748.733-1.156.945-.512.264-1.162.396-1.95.396zm-7.021-.248V9.2c0-.589-.143-1.045-.43-1.37-.282-.33-.673-.495-1.173-.495-.321 0-.6.074-.836.223a1.484 1.484 0 00-.557.61c-.129.259-.194.559-.194.9v5.395h-2.295V9.2c0-.589-.143-1.045-.43-1.37-.282-.33-.673-.495-1.173-.495-.479 0-.864.162-1.156.487-.287.319-.43.734-.43 1.246v5.395h-2.313v-8.91h2.025v.976c.265-.318.588-.58.97-.786a3.553 3.553 0 011.697-.404c.714 0 1.3.148 1.755.445.38.245.679.558.895.938.29-.42.664-.748 1.122-.987a3.509 3.509 0 011.662-.396c1.041 0 1.826.302 2.355.907.534.6.801 1.386.801 2.36v5.857h-2.295zm-20.054-.09c.45.236 1.032.354 1.747.354.894 0 1.634-.19 2.22-.569.277-.178.521-.383.733-.614v.92h2.025v-8.91h-2.312v4.52c0 .55-.064.996-.194 1.337-.123.335-.284.591-.48.767-.198.17-.409.286-.634.347-.225.06-.436.09-.633.09-.489 0-.869-.107-1.139-.322a1.831 1.831 0 01-.573-.8 3.432 3.432 0 01-.211-.949c-.023-.318-.034-.58-.034-.783V5.552h-2.33v5c0 .148.012.385.035.71a5.7 5.7 0 00.194 1.08c.107.39.284.767.531 1.13.253.363.605.663 1.055.9z" fill="#16171A"></path></svg>