<svg width="28" height="28" viewBox="0 0 28 28" fill="none" xmlns="http://www.w3.org/2000/svg">
<path d="M16.709 11.291V6.70799C16.709 6.59739 16.6651 6.49132 16.5869 6.41312C16.5087 6.33492 16.4026 6.29099 16.292 6.29099H6.70899C6.5984 6.29099 6.49233 6.33492 6.41413 6.41312C6.33593 6.49132 6.29199 6.59739 6.29199 6.70799V16.292C6.29199 16.522 6.47899 16.708 6.70899 16.708H11.292M11.709 11.292H21.292C21.522 11.292 21.709 11.478 21.709 11.708V21.291C21.709 21.521 21.522 21.708 21.292 21.708H11.709C11.5986 21.708 11.4927 21.6642 11.4145 21.5862C11.3363 21.5082 11.2923 21.4024 11.292 21.292V11.708C11.292 11.478 11.479 11.292 11.709 11.292Z" stroke="black" stroke-width="1.5" stroke-linecap="round" stroke-linejoin="round"/>
</svg>
