<svg width="192" height="192" viewBox="0 0 192 192" fill="none" xmlns="http://www.w3.org/2000/svg">
<rect width="192" height="192" rx="41.1429" fill="url(#paint0_linear_1518_107187)"/>
<g clip-path="url(#clip0_1518_107187)">
<path opacity="0.3" fill-rule="evenodd" clip-rule="evenodd" d="M170.558 170.558L178.286 178.286L177.68 178.892L170.477 171.689V178.286H169.62V170.832L169.346 170.558H142.687V178.286H141.83V170.558H126.598C117.413 174.332 107.377 176.457 96.8572 176.567V178.286H96.0001L96 176.571C85.1683 176.571 74.8359 174.434 65.4015 170.558H50.1541V178.286H49.297V170.558H22.6541L22.1538 171.058V178.286H21.2967V171.916L14.3203 178.892L13.7143 178.286L21.2967 170.703V170.558H13.7142V169.701H21.2967V126.243C17.6138 117.154 15.5412 107.241 15.433 96.8572H13.7142V96.0001L15.4285 96.0001C15.4285 85.3045 17.5126 75.0957 21.2967 65.7575V22.509L21.1354 22.3477H13.7142V21.4906H20.2783L13.1082 14.3204L13.7142 13.7144L21.2967 21.2968V13.7144H22.1538V21.4906H49.297V13.7144H50.1541V21.4906H65.2836C74.7498 17.5839 85.1232 15.4286 96 15.4286H96.0001V13.7144H96.8572V15.4331C107.422 15.5432 117.499 17.6866 126.716 21.4906H141.83V13.7144H142.687V21.4906H169.62V13.7144H170.477V21.4906H170.509L178.286 13.7144L178.892 14.3204L171.722 21.4906H178.286V22.3477H170.864L170.477 22.7353V65.205C174.404 74.6924 176.571 85.0931 176.571 96.0001L178.286 96.0001V96.8572H176.567C176.456 107.452 174.301 117.557 170.477 126.795V169.701H178.286V170.558H170.558ZM169.62 169.62V128.789C165.574 137.859 159.901 146.044 152.973 152.973L169.62 169.62ZM152.366 152.367C159.681 145.052 165.581 136.322 169.62 126.624V107.913C167.08 123.733 159.563 137.89 148.726 148.726L152.366 152.367ZM148.117 149.329L151.757 152.969C148.93 155.736 145.899 158.295 142.687 160.619V154.145C144.574 152.628 146.387 151.02 148.117 149.329ZM148.12 148.12C160.654 135.586 168.695 118.559 169.62 99.6611V96.8572H142.687V142.687L148.12 148.12ZM142.687 143.899L147.511 148.723C145.967 150.231 144.358 151.672 142.687 153.041V143.899ZM141.83 141.83V96.8572H125.988C125.765 104.801 122.454 111.972 117.213 117.213L141.83 141.83ZM116.599 117.811L141.83 143.042V153.733C129.516 163.521 114 169.452 97.1072 169.701H96.8572V125.988C104.495 125.774 111.418 122.705 116.599 117.811ZM116.607 116.607C121.693 111.521 124.908 104.564 125.131 96.8572H96.8572L116.607 116.607ZM96.8572 98.0695L115.992 117.204C110.967 121.944 104.258 124.917 96.8572 125.131V98.0695ZM96 96.0001L96.0001 66.8572C87.9525 66.8572 80.6667 70.1192 75.3929 75.393L96 96.0001ZM74.7957 76.008L94.7878 96.0001H66.8572C66.8572 88.2608 69.8739 81.2262 74.7957 76.008ZM74.7868 74.7869C80.2157 69.358 87.7158 66.0001 96.0001 66.0001V22.3477H93.0764C76.8813 22.9794 62.0276 28.8363 50.1541 38.2798V50.1542L74.7868 74.7869ZM50.1541 51.3664L74.1893 75.4016C69.1126 80.7752 66.0001 88.0241 66.0001 96.0001H50.1541V51.3664ZM49.297 49.2971V38.972C47.4108 40.5184 45.6028 42.1566 43.8797 43.8798L49.297 49.2971ZM43.2771 44.4894L49.297 50.5093V96.0001H22.2908V96C22.2908 75.9541 30.2929 57.7772 43.2771 44.4894ZM43.2736 43.2737C45.1815 41.3658 47.1923 39.5608 49.297 37.8677V31.3926C45.8591 33.8821 42.6277 36.6393 39.6334 39.6336L43.2736 43.2737ZM39.0306 40.2429L42.6709 43.8832C31.8191 54.9859 24.406 69.4639 22.1538 85.595V65.9257C26.0877 56.2761 31.858 47.5704 39.0306 40.2429ZM39.0274 39.0275C42.1992 35.8556 45.6343 32.947 49.297 30.3372V22.3477H22.3476L39.0274 39.0275ZM22.1538 23.3661L38.4245 39.6368C31.6403 46.5659 26.097 54.7145 22.1538 63.7234V23.3661ZM96.0001 97.2122V125.143C88.2608 125.143 81.2261 122.126 76.0078 117.204L96.0001 97.2122ZM152.363 153.576L168.489 169.701H142.687V161.674C146.122 159.228 149.357 156.518 152.363 153.576ZM22.2991 169.701H22.1538V128.277C26.2132 137.551 31.9684 145.914 39.0274 152.973L22.2991 169.701ZM141.83 162.277V169.701H128.606C133.263 167.638 137.687 165.146 141.83 162.277ZM141.83 161.231C137.055 164.592 131.895 167.442 126.428 169.701H107.396C120.249 167.73 132.021 162.477 141.83 154.824V161.231ZM94.8927 169.701H96L96.0001 126C88.0241 126 80.7751 122.887 75.4015 117.811L50.1541 143.058V153.72C62.4702 163.516 77.9926 169.452 94.8927 169.701ZM65.5718 169.701H84.6042C71.7439 167.729 59.9659 162.471 50.1541 154.811V161.22C54.9334 164.585 60.0992 167.439 65.5718 169.701ZM94.8862 170.558H67.7351C76.52 173.89 86.0469 175.714 96 175.714V170.566C95.6281 170.566 95.2568 170.564 94.8862 170.558ZM50.1541 162.265C54.3011 165.14 58.731 167.635 63.3935 169.701H50.1541V162.265ZM49.297 161.663V169.701H23.5112L39.6367 153.576C42.6377 156.514 45.8676 159.219 49.297 161.663ZM124.265 170.558H97.114C97.0284 170.559 96.9428 170.56 96.8572 170.561V175.71C106.5 175.608 115.732 173.794 124.265 170.558ZM50.1541 22.3477V29.7348C54.2687 26.8827 58.6617 24.404 63.2841 22.3477H50.1541ZM65.4545 22.3477C60.0254 24.6019 54.8992 27.4388 50.1541 30.7805V37.1885C59.8861 29.5912 71.5524 24.3568 84.2907 22.3477H65.4545ZM96.8572 22.3477H98.9235C115.111 22.9791 129.959 28.831 141.83 38.2669V50.1704L117.213 74.7868C111.972 69.5458 104.801 66.2349 96.8572 66.0121V22.3477ZM107.709 22.3477H126.545C131.968 24.5993 137.089 27.4324 141.83 30.7691V37.1759C132.101 29.5854 120.44 24.3557 107.709 22.3477ZM124.393 21.4906H98.9405C98.2484 21.4637 97.554 21.4463 96.8572 21.4385V16.2903C106.548 16.3924 115.825 18.2238 124.393 21.4906ZM128.716 22.3477C133.332 24.4013 137.72 26.8762 141.83 29.7236V22.3477H128.716ZM142.687 22.3477V30.3257C146.356 32.9385 149.796 35.851 152.973 39.0275L169.62 22.3803V22.3477H142.687ZM93.0594 21.4906H67.6074C76.4276 18.1276 85.9987 16.2858 96 16.2858H96.0001V21.4337H96C95.0152 21.4337 94.0349 21.4528 93.0594 21.4906ZM170.477 67.5224C173.861 76.3661 175.714 85.9666 175.714 96.0001L170.566 96C170.566 94.7653 170.536 93.5375 170.477 92.3175V67.5224ZM175.71 96.8572H170.561C170.551 97.8033 170.522 98.7451 170.477 99.6824V124.478C173.764 115.886 175.607 106.58 175.71 96.8572ZM169.62 92.3388V96.0001H142.687V50.5254L148.723 44.4894C160.912 56.9634 168.71 73.7461 169.62 92.3388ZM141.83 51.3826V96.0001H126C126 88.0241 122.887 80.7751 117.811 75.4015L141.83 51.3826ZM117.204 76.0079C122.126 81.2261 125.143 88.2608 125.143 96.0001H97.2121L117.204 76.0079ZM95.1428 96.8572H66.8696C67.0922 104.564 70.307 111.521 75.3929 116.607L95.1428 96.8572ZM66.0121 96.8572H50.1541V141.846L74.7868 117.213C69.5458 111.972 66.2349 104.801 66.0121 96.8572ZM49.297 96.8572H22.2957C22.5238 116.871 30.7285 134.969 43.8798 148.12L49.297 142.703V96.8572ZM21.2967 68.1211V96.0001L16.2857 96.0001C16.2857 86.1926 18.0568 76.7988 21.2967 68.1211ZM21.2967 96.8572H16.2902C16.3902 106.355 18.1513 115.454 21.2967 123.879V96.8572ZM142.687 49.3132V38.9587C144.579 40.5091 146.392 42.1517 148.12 43.8798L142.687 49.3132ZM142.687 37.8547V31.3809C146.131 33.8735 149.368 36.6346 152.366 39.6336L148.726 43.2737C146.814 41.3609 144.797 39.5515 142.687 37.8547ZM169.62 65.3764V84.087C167.127 68.5619 159.842 54.6388 149.329 43.8832L152.969 40.2429C160.006 47.4311 165.692 55.9456 169.62 65.3764ZM169.62 23.5925V63.2112C165.692 54.4056 160.231 46.4343 153.575 39.6368L169.62 23.5925ZM22.1538 126.074C26.1973 135.993 32.181 144.914 39.6334 152.367L43.2737 148.726C32.0938 137.546 24.4475 122.833 22.1538 106.405V126.074ZM44.4894 148.723L49.297 143.915V153.028C47.632 151.663 46.0279 150.226 44.4894 148.723ZM43.8832 149.329C45.6085 151.015 47.4152 152.618 49.297 154.132V160.607C46.0911 158.286 43.0647 155.732 40.2428 152.969L43.8832 149.329ZM96.8572 95.1428L116.607 75.3929C111.521 70.307 104.564 67.0922 96.8572 66.8696V95.1428Z" fill="white"/>
</g>
<rect x="14.5715" y="14.5715" width="162.857" height="162.857" rx="26.5714" stroke="#F9F9F9" stroke-width="1.71429"/>
<path d="M60.2613 108.759C58.3638 108.759 56.8174 108.44 55.6221 107.802C54.4269 107.163 53.4931 106.354 52.8207 105.374C52.1633 104.394 51.6927 103.377 51.4088 102.323C51.1249 101.253 50.9531 100.281 50.8934 99.4048C50.8336 98.5287 50.8037 97.8903 50.8037 97.4893V83.9921H56.9892V95.3512C56.9892 95.9006 57.0191 96.6059 57.0789 97.4671C57.1386 98.3134 57.3254 99.1672 57.6391 100.028C57.9529 100.89 58.4609 101.61 59.1631 102.189C59.8803 102.768 60.8888 103.058 62.1886 103.058C62.7116 103.058 63.2718 102.976 63.8695 102.813C64.4671 102.649 65.0274 102.337 65.5503 101.877C66.0733 101.402 66.4991 100.711 66.8278 99.8057C67.1714 98.8851 67.3432 97.6824 67.3432 96.1975V83.9921H73.4839V108.047H68.1052V105.566C67.5428 106.189 66.8928 106.741 66.1554 107.223C64.6016 108.247 62.6369 108.759 60.2613 108.759Z" fill="#F9F9F9"/>
<path d="M108.882 93.8366V108.047H114.978V92.233C114.978 89.6048 114.268 87.4814 112.849 85.863C111.445 84.2296 109.36 83.413 106.596 83.413C104.983 83.413 103.511 83.7693 102.181 84.4821C100.964 85.1282 99.9706 86.0163 99.2016 87.1463C98.6281 86.1208 97.8359 85.2773 96.825 84.6157C95.6148 83.8139 94.061 83.413 92.1635 83.413C90.505 83.413 89.0035 83.7767 87.6588 84.5043C86.6427 85.0603 85.7836 85.7681 85.0815 86.6275V83.9921H79.7028V108.047H85.8435V93.4802C85.8435 92.0993 86.2245 90.9783 86.9865 90.1171C87.7634 89.241 88.7868 88.803 90.0568 88.803C91.3866 88.803 92.4249 89.2484 93.172 90.1393C93.934 91.0154 94.315 92.2478 94.315 93.8366V108.047H100.411V93.4802C100.411 92.5596 100.583 91.7504 100.926 91.0525C101.285 90.3398 101.778 89.7904 102.405 89.4043C103.033 89.0034 103.773 88.803 104.624 88.803C105.954 88.803 106.992 89.2484 107.739 90.1393C108.501 91.0154 108.882 92.2478 108.882 93.8366Z" fill="#F9F9F9"/>
<path fill-rule="evenodd" clip-rule="evenodd" d="M123.115 107.736C124.325 108.389 125.796 108.716 127.53 108.716C129.621 108.716 131.347 108.359 132.707 107.646C133.79 107.073 134.814 106.222 135.777 105.095V108.047H141.111V93.3473C141.111 92.2485 141.066 91.2537 140.976 90.3628C140.887 89.4719 140.603 88.581 140.125 87.6901C139.273 86.0864 138.018 84.9579 136.36 84.3046C134.701 83.6513 132.804 83.3246 130.667 83.3246C127.754 83.3246 125.453 83.9482 123.764 85.1955C122.076 86.4428 120.926 88.0613 120.313 90.051L125.826 91.7882C126.215 90.6894 126.895 89.9247 127.866 89.4941C128.837 89.0635 129.771 88.8482 130.667 88.8482C132.281 88.8482 133.431 89.1823 134.118 89.8505C134.693 90.4092 135.027 91.2325 135.122 92.3205C134.372 92.7465 133.541 93.0528 132.46 93.2438C131.06 93.4913 129.878 93.6781 128.942 93.8262C128.491 93.8974 128.097 93.9597 127.763 94.0154C126.734 94.1871 125.119 94.5631 124.253 94.8239C123.388 95.0847 122.318 95.5746 121.541 96.2873C120.779 96.9852 120.239 97.8138 119.895 98.7344C119.552 99.655 119.461 100.296 119.461 101.41C119.461 102.746 119.768 103.971 120.38 105.085C121.008 106.184 121.919 107.067 123.115 107.736ZM128.829 103.949C129.95 103.949 130.891 103.756 131.653 103.37C132.43 102.969 133.043 102.516 133.491 102.011C133.954 101.507 134.268 101.083 134.432 100.742C134.746 100.089 134.925 99.3313 134.97 98.4701C135.009 97.8964 135.036 97.3864 135.049 96.94C134.06 97.1934 133.189 97.3548 132.49 97.4845L132.46 97.4901C131.339 97.6831 130.436 97.8613 129.748 98.0246C129.061 98.1879 128.456 98.3661 127.933 98.5591C127.335 98.7967 126.85 99.0566 126.476 99.3387C126.118 99.606 125.849 99.9029 125.669 100.23C125.505 100.556 125.423 100.92 125.423 101.321C125.423 101.87 125.557 102.346 125.826 102.746C126.11 103.132 126.506 103.429 127.014 103.637C127.522 103.845 128.127 103.949 128.829 103.949Z" fill="#F9F9F9"/>
<path d="M35.2574 91.8508C35.2574 87.8333 35.2583 84.8883 35.4494 82.5639C35.6394 80.2528 36.0118 78.6548 36.6996 77.3131C37.9684 74.8384 39.9936 72.8251 42.4862 71.5629C43.8386 70.878 45.4492 70.5076 47.7762 70.3187C50.1161 70.1287 53.0805 70.1278 57.1225 70.1278H134.607C138.649 70.1278 141.614 70.1287 143.953 70.3187C146.28 70.5076 147.891 70.878 149.243 71.5629C151.736 72.8251 153.761 74.8384 155.03 77.3131C155.718 78.6548 156.09 80.2528 156.28 82.5639C156.471 84.8883 156.472 87.8333 156.472 91.8508V100.148C156.472 104.166 156.471 107.111 156.28 109.435C156.09 111.746 155.718 113.344 155.03 114.686C153.761 117.161 151.736 119.174 149.243 120.436C147.891 121.121 146.28 121.492 143.953 121.681C141.614 121.871 138.649 121.871 134.607 121.871H57.1225C53.0805 121.871 50.1161 121.871 47.7762 121.681C45.4492 121.492 43.8386 121.121 42.4862 120.436C39.9936 119.174 37.9684 117.161 36.6996 114.686C36.0118 113.344 35.6394 111.746 35.4494 109.435C35.2583 107.111 35.2574 104.166 35.2574 100.148V91.8508Z" stroke="#F9F9F9" stroke-width="2.24972"/>
<defs>
<linearGradient id="paint0_linear_1518_107187" x1="96" y1="-2.86102e-06" x2="96" y2="192" gradientUnits="userSpaceOnUse">
<stop stop-color="#3993E8"/>
<stop offset="1" stop-color="#0068C9"/>
</linearGradient>
<clipPath id="clip0_1518_107187">
<rect x="13.7144" y="13.7144" width="164.571" height="164.571" rx="27.4286" fill="white"/>
</clipPath>
</defs>
</svg>
